<svg xmlns="http://www.w3.org/2000/svg" class="developer-logo" viewBox="0 0 89 40">
  <path d="m20.928 4.854-.663-.207c-.384-.138-1.082-.311-1.082-.899 0-.45.523-.795 1.466-.795.838 0 1.85.277 1.886.277V1.19c-.07-.035-1.153-.311-2.34-.311-2.2 0-3.526 1.175-3.526 2.973 0 1.555 1.117 2.35 2.444 2.765.14.035.349.104.524.173.593.173 1.047.45 1.047.933 0 .553-.559.9-1.746.9-1.047 0-2.06-.312-2.27-.347v2.178c.105.035 1.327.242 2.584.242 1.816 0 3.911-.795 3.911-3.18.035-1.106-.698-2.178-2.235-2.662Zm21.79 1.003c0-1.383-1.048-2.49-2.48-2.49-1.431 0-2.479 1.107-2.479 2.49 0 1.382 1.048 2.489 2.48 2.489 1.431 0 2.479-1.107 2.479-2.49Zm2.549 0c0 2.696-2.095 4.908-4.994 4.908-2.933 0-4.993-2.212-4.993-4.908 0-2.697 2.095-4.909 4.993-4.909 2.899 0 4.994 2.178 4.994 4.909Zm-44.73 0c0 3.042 2.374 4.908 5.027 4.908a7.036 7.036 0 0 0 2.2-.345V7.862c-.104.069-.873.484-2.025.484-1.606 0-2.619-1.107-2.619-2.524C3.12 4.37 4.203 3.3 5.74 3.3c1.152 0 1.92.449 2.025.518V1.26c-.21-.069-1.047-.346-2.2-.346C2.666.948.536 3.023.536 5.857Zm24.966 0c0 3.042 2.374 4.908 5.063 4.908 1.048 0 1.886-.242 2.165-.345V7.862c-.105.069-.873.484-2.025.484-1.607 0-2.62-1.107-2.62-2.524 0-1.452 1.083-2.523 2.62-2.523 1.152 0 1.92.449 2.025.518V1.26c-.21-.069-1.048-.346-2.165-.346-2.933.035-5.063 2.11-5.063 4.944ZM11.047 1.12h2.374v9.471h-2.374V1.121ZM.571 20.03h6.216c3.142 0 5.517.864 7.123 2.627 1.501 1.624 2.27 3.871 2.27 6.844 0 3.18-1.013 5.635-3.038 7.329-1.711 1.417-3.876 2.143-6.565 2.143H.571V20.029Zm6.25 2.143H3.26V36.76h3.596c2.27 0 3.946-.691 5.063-2.108 1.013-1.21 1.502-2.939 1.502-5.15 0-2.593-.663-4.495-2.025-5.74-1.118-1.07-2.654-1.59-4.575-1.59ZM28.61 34.997h2.759c-.384 1.383-1.152 2.455-2.305 3.25-1.082.726-2.374 1.071-3.875 1.071-2.166 0-3.877-.691-5.099-2.04-1.117-1.278-1.676-3.007-1.676-5.184 0-2.455.699-4.356 2.13-5.635 1.153-1.072 2.654-1.59 4.505-1.59 2.165 0 3.771.691 4.888 2.074 1.048 1.348 1.607 3.215 1.607 5.704H20.998c.105 1.624.594 2.8 1.502 3.595.733.622 1.64.933 2.758.933.873 0 1.607-.242 2.27-.726.524-.346.873-.83 1.082-1.452Zm-3.526-8.089c-1.118 0-2.06.346-2.724 1.037-.663.657-1.082 1.556-1.257 2.697h7.787c-.105-1.314-.524-2.282-1.327-2.939-.629-.518-1.432-.795-2.48-.795ZM42.857 25.284h2.654l-4.854 13.654h-3.421l-4.82-13.654h2.794l3.806 11.615 3.841-11.615ZM60.456 20.03h2.41v18.908h-3.422l-9.219-15.832v15.832h-2.48V20.03h3.597l9.114 15.694V20.03ZM76.065 34.997h2.758c-.384 1.383-1.152 2.455-2.304 3.25-1.083.726-2.375 1.071-3.876 1.071-2.165 0-3.876-.691-5.099-2.04-1.117-1.278-1.676-3.007-1.676-5.184 0-2.455.699-4.356 2.13-5.635 1.153-1.072 2.654-1.59 4.505-1.59 2.165 0 3.771.691 4.888 2.074 1.048 1.348 1.607 3.215 1.607 5.704h-10.51c.104 1.624.593 2.8 1.5 3.595.734.622 1.642.933 2.76.933.872 0 1.606-.242 2.269-.726.489-.346.873-.83 1.048-1.452Zm-3.492-8.089c-1.118 0-2.06.346-2.724 1.037-.663.657-1.082 1.556-1.257 2.697h7.787c-.105-1.314-.524-2.282-1.327-2.939-.629-.518-1.467-.795-2.48-.795ZM88.181 36.933v2.143c-.663.173-1.292.277-1.885.277-1.257 0-2.235-.38-2.864-1.175-.558-.657-.838-1.521-.838-2.593v-8.158h-2.06v-2.143h2.06L82.77 22h2.374v3.284h2.969v2.143h-2.969v8.158c0 1.002.49 1.52 1.467 1.52.454.036.978-.034 1.571-.172Z"/>
</svg>
