<svg width="247" height="70" viewBox="0 0 247 70" fill="none" xmlns="http://www.w3.org/2000/svg">
<path d="M26.7481 39.6202H8.61487V58.7213H0V11.5977H8.61487V31.3441H26.7481V11.5977H35.3629V58.7213H26.7481V39.6202Z" fill="#253342"/>
<path d="M62.9015 43.4926C62.9015 47.4128 59.7072 50.6071 55.787 50.6071C51.8667 50.6071 48.6724 47.4128 48.6724 43.4926V23.3105H40.5254V43.4926C40.5254 51.9139 47.3818 58.7703 55.8031 58.7703C64.2244 58.7703 71.0808 51.9139 71.0808 43.4926V23.3105H62.9337V43.4926H62.9015Z" fill="#253342"/>
<path d="M123.399 25.3755C123.399 21.2294 126.142 19.9226 129.142 19.9226C131.562 19.9226 134.757 21.7618 136.838 23.9881L142.178 17.6802C139.5 14.0665 134.095 11.582 129.659 11.582C120.786 11.582 114.397 16.7768 114.397 25.3755C114.397 41.3308 133.902 36.2651 133.902 45.2026C133.902 47.9613 131.224 50.3812 128.158 50.3812C123.335 50.3812 121.77 48.0097 119.544 45.5253L113.607 51.688C117.398 56.3503 122.092 58.7219 127.691 58.7219C136.112 58.7219 142.888 53.4626 142.888 45.2672C142.888 27.5373 123.383 33.0547 123.383 25.3755H123.399Z" fill="#253342"/>
<path d="M244.056 51.1914C239.232 51.1914 237.861 49.1103 237.861 45.916V31.7676H245.363V24.5885H237.861V15.1348L229.585 18.8453V47.6745C229.585 55.0471 234.667 58.7577 241.652 58.7577C242.701 58.7577 244.137 58.6931 244.911 58.4995L246.928 51.0624C246.008 51.1269 244.976 51.1914 244.056 51.1914Z" fill="#253342"/>
<path d="M93.9892 23.537C89.9399 23.537 87.1167 24.7147 84.3902 27.3927V11.873H76.2109V40.6216C76.2109 51.3821 83.9869 58.7547 92.7309 58.7547C102.443 58.7547 110.961 51.253 110.961 41.1378C110.961 31.0226 103.104 23.5209 93.9731 23.5209L93.9892 23.537ZM93.9247 50.527C88.7945 50.527 84.6484 46.3809 84.6484 41.2507C84.6484 36.1205 88.7945 31.9744 93.9247 31.9744C99.0549 31.9744 103.201 36.1205 103.201 41.2507C103.201 46.3809 99.0549 50.527 93.9247 50.527Z" fill="#253342"/>
<path d="M182.784 40.7341C182.784 30.6189 174.266 23.1172 164.554 23.1172C155.81 23.1172 148.034 30.4898 148.034 41.2504V69.9989H156.213V54.4792C158.94 57.1572 161.763 58.3349 165.812 58.3349C174.943 58.3349 182.8 50.7041 182.8 40.718L182.784 40.7341ZM175.024 40.6212C175.024 45.7514 170.878 49.8975 165.748 49.8975C160.617 49.8975 156.471 45.7514 156.471 40.6212C156.471 35.491 160.617 31.3449 165.748 31.3449C170.878 31.3449 175.024 35.491 175.024 40.6212Z" fill="#253342"/>
<path d="M209.209 22.7149V14.5033C211.355 13.4869 212.855 11.3252 212.855 8.80845V8.61487C212.855 5.14633 210.016 2.29084 206.531 2.29084H206.338C202.869 2.29084 200.014 5.1302 200.014 8.61487V8.80845C200.014 11.3252 201.514 13.5031 203.66 14.5033V22.7149C200.465 23.215 197.545 24.5217 195.142 26.4577L172.588 8.90525C172.733 8.3406 172.846 7.74371 172.846 7.13066C172.846 3.19428 169.668 0 165.732 0C161.795 0 158.601 3.17813 158.601 7.11451C158.601 11.0509 161.779 14.2452 165.715 14.2452C167.006 14.2452 168.184 13.8903 169.232 13.2934L191.415 30.5554C189.527 33.4109 188.43 36.8149 188.43 40.4931C188.43 44.1714 189.64 47.8981 191.705 50.8181L184.962 57.5616C184.429 57.4002 183.881 57.2873 183.284 57.2873C180.057 57.2873 177.428 59.9169 177.428 63.1435C177.428 66.37 180.057 68.9996 183.284 68.9996C186.511 68.9996 189.14 66.37 189.14 63.1435C189.14 62.5627 189.027 61.9981 188.866 61.4657L195.545 54.7867C198.578 57.0937 202.353 58.4811 206.451 58.4811C216.405 58.4811 224.471 50.4148 224.471 40.4609C224.471 31.4588 217.856 24.0055 209.225 22.6826L209.209 22.7149ZM206.451 49.7372C201.353 49.7372 197.207 45.6072 197.207 40.5093C197.207 35.4113 201.337 31.2814 206.451 31.2814C211.565 31.2814 215.679 35.4113 215.679 40.5093C215.679 45.6072 211.549 49.7372 206.451 49.7372Z" fill="#EB6744"/>
</svg>
