<svg height="188" viewBox="0 0 366 188" width="366" xmlns="http://www.w3.org/2000/svg"><path d="m237.6457 65.9646c.0837 1.2116.0837 2.4231.0837 3.6459 0 37.2567-28.3627 80.2251-80.2251 80.2251v-.0223a79.8214 79.8214 0 0 1 -43.22-12.64 57.3569 57.3569 0 0 0 6.711.4076 56.6165 56.6165 0 0 0 35.0179-12.0933 28.2309 28.2309 0 0 1 -26.3415-19.58 28.1037 28.1037 0 0 0 12.73-.4857 28.1981 28.1981 0 0 1 -22.6176-27.6369v-.358a28.0173 28.0173 0 0 0 12.7967 3.5286 28.2311 28.2311 0 0 1 -8.7266-37.6476 80.0264 80.0264 0 0 0 58.11 29.457 28.2223 28.2223 0 0 1 48.0491-25.7163 56.5784 56.5784 0 0 0 17.9054-6.845 28.3008 28.3008 0 0 1 -12.3947 15.5939 56.0757 56.0757 0 0 0 16.1913-4.4386 57.281 57.281 0 0 1 -14.0696 14.6056z" fill="#1d9bf0"/></svg>